<mxfile host="app.diagrams.net" agent="Mozilla/5.0 (X11; Linux x86_64) AppleWebKit/537.36 (KHTML, like Gecko) Chrome/129.0.0.0 Safari/537.36" version="24.7.17">
  <diagram id="C5RBs43oDa-KdzZeNtuy" name="Page-1">
    <mxGraphModel dx="2049" dy="1084" grid="1" gridSize="10" guides="1" tooltips="1" connect="1" arrows="1" fold="1" page="1" pageScale="1" pageWidth="827" pageHeight="1169" math="0" shadow="0">
      <root>
        <mxCell id="WIyWlLk6GJQsqaUBKTNV-0" />
        <mxCell id="WIyWlLk6GJQsqaUBKTNV-1" parent="WIyWlLk6GJQsqaUBKTNV-0" />
        <mxCell id="PMqfsjEAWjkF-4yW7PhV-5" value="" style="edgeStyle=orthogonalEdgeStyle;rounded=0;orthogonalLoop=1;jettySize=auto;html=1;" edge="1" parent="WIyWlLk6GJQsqaUBKTNV-1" source="PMqfsjEAWjkF-4yW7PhV-0" target="PMqfsjEAWjkF-4yW7PhV-4">
          <mxGeometry relative="1" as="geometry" />
        </mxCell>
        <mxCell id="PMqfsjEAWjkF-4yW7PhV-0" value="Inicio" style="ellipse;whiteSpace=wrap;html=1;aspect=fixed;" vertex="1" parent="WIyWlLk6GJQsqaUBKTNV-1">
          <mxGeometry x="740" y="139" width="40" height="40" as="geometry" />
        </mxCell>
        <mxCell id="PMqfsjEAWjkF-4yW7PhV-12" value="" style="edgeStyle=orthogonalEdgeStyle;rounded=0;orthogonalLoop=1;jettySize=auto;html=1;" edge="1" parent="WIyWlLk6GJQsqaUBKTNV-1" source="PMqfsjEAWjkF-4yW7PhV-4" target="PMqfsjEAWjkF-4yW7PhV-11">
          <mxGeometry relative="1" as="geometry" />
        </mxCell>
        <mxCell id="PMqfsjEAWjkF-4yW7PhV-54" style="edgeStyle=orthogonalEdgeStyle;rounded=0;orthogonalLoop=1;jettySize=auto;html=1;entryX=0.5;entryY=0;entryDx=0;entryDy=0;" edge="1" parent="WIyWlLk6GJQsqaUBKTNV-1" source="PMqfsjEAWjkF-4yW7PhV-4" target="PMqfsjEAWjkF-4yW7PhV-52">
          <mxGeometry relative="1" as="geometry">
            <Array as="points">
              <mxPoint x="160" y="159" />
            </Array>
          </mxGeometry>
        </mxCell>
        <mxCell id="PMqfsjEAWjkF-4yW7PhV-4" value="Tem conta?" style="rhombus;whiteSpace=wrap;html=1;" vertex="1" parent="WIyWlLk6GJQsqaUBKTNV-1">
          <mxGeometry x="470" y="119" width="80" height="80" as="geometry" />
        </mxCell>
        <mxCell id="PMqfsjEAWjkF-4yW7PhV-9" value="Fim" style="ellipse;whiteSpace=wrap;html=1;aspect=fixed;fillColor=#FFFFFF;" vertex="1" parent="WIyWlLk6GJQsqaUBKTNV-1">
          <mxGeometry x="20" y="419" width="40" height="40" as="geometry" />
        </mxCell>
        <mxCell id="PMqfsjEAWjkF-4yW7PhV-15" value="" style="edgeStyle=orthogonalEdgeStyle;rounded=0;orthogonalLoop=1;jettySize=auto;html=1;" edge="1" parent="WIyWlLk6GJQsqaUBKTNV-1" source="PMqfsjEAWjkF-4yW7PhV-11" target="PMqfsjEAWjkF-4yW7PhV-14">
          <mxGeometry relative="1" as="geometry" />
        </mxCell>
        <mxCell id="PMqfsjEAWjkF-4yW7PhV-11" value="Clicar no link de cadastro" style="rounded=1;whiteSpace=wrap;html=1;" vertex="1" parent="WIyWlLk6GJQsqaUBKTNV-1">
          <mxGeometry x="450" y="289" width="120" height="60" as="geometry" />
        </mxCell>
        <mxCell id="PMqfsjEAWjkF-4yW7PhV-13" value="Não" style="text;html=1;align=center;verticalAlign=middle;resizable=0;points=[];autosize=1;strokeColor=none;fillColor=none;" vertex="1" parent="WIyWlLk6GJQsqaUBKTNV-1">
          <mxGeometry x="506" y="227" width="50" height="30" as="geometry" />
        </mxCell>
        <mxCell id="PMqfsjEAWjkF-4yW7PhV-18" value="" style="edgeStyle=orthogonalEdgeStyle;rounded=0;orthogonalLoop=1;jettySize=auto;html=1;" edge="1" parent="WIyWlLk6GJQsqaUBKTNV-1" source="PMqfsjEAWjkF-4yW7PhV-14" target="PMqfsjEAWjkF-4yW7PhV-17">
          <mxGeometry relative="1" as="geometry" />
        </mxCell>
        <mxCell id="PMqfsjEAWjkF-4yW7PhV-14" value="Direcionar usuário pra tela de cadastro" style="whiteSpace=wrap;html=1;rounded=1;" vertex="1" parent="WIyWlLk6GJQsqaUBKTNV-1">
          <mxGeometry x="450" y="429" width="120" height="60" as="geometry" />
        </mxCell>
        <mxCell id="PMqfsjEAWjkF-4yW7PhV-20" value="" style="edgeStyle=orthogonalEdgeStyle;rounded=0;orthogonalLoop=1;jettySize=auto;html=1;" edge="1" parent="WIyWlLk6GJQsqaUBKTNV-1" source="PMqfsjEAWjkF-4yW7PhV-17" target="PMqfsjEAWjkF-4yW7PhV-19">
          <mxGeometry relative="1" as="geometry" />
        </mxCell>
        <mxCell id="PMqfsjEAWjkF-4yW7PhV-17" value="Solicitar nome de usuário para login" style="rounded=1;whiteSpace=wrap;html=1;" vertex="1" parent="WIyWlLk6GJQsqaUBKTNV-1">
          <mxGeometry x="450" y="569" width="120" height="60" as="geometry" />
        </mxCell>
        <mxCell id="PMqfsjEAWjkF-4yW7PhV-22" value="" style="edgeStyle=orthogonalEdgeStyle;rounded=0;orthogonalLoop=1;jettySize=auto;html=1;" edge="1" parent="WIyWlLk6GJQsqaUBKTNV-1" source="PMqfsjEAWjkF-4yW7PhV-19" target="PMqfsjEAWjkF-4yW7PhV-21">
          <mxGeometry relative="1" as="geometry" />
        </mxCell>
        <mxCell id="PMqfsjEAWjkF-4yW7PhV-19" value="Solicitar idade em anos completos" style="rounded=1;whiteSpace=wrap;html=1;" vertex="1" parent="WIyWlLk6GJQsqaUBKTNV-1">
          <mxGeometry x="700" y="569" width="120" height="60" as="geometry" />
        </mxCell>
        <mxCell id="PMqfsjEAWjkF-4yW7PhV-24" value="" style="edgeStyle=orthogonalEdgeStyle;rounded=0;orthogonalLoop=1;jettySize=auto;html=1;" edge="1" parent="WIyWlLk6GJQsqaUBKTNV-1" source="PMqfsjEAWjkF-4yW7PhV-21" target="PMqfsjEAWjkF-4yW7PhV-23">
          <mxGeometry relative="1" as="geometry" />
        </mxCell>
        <mxCell id="PMqfsjEAWjkF-4yW7PhV-21" value="Solicitar sexo (masculino / feminino)" style="rounded=1;whiteSpace=wrap;html=1;" vertex="1" parent="WIyWlLk6GJQsqaUBKTNV-1">
          <mxGeometry x="700" y="709" width="120" height="60" as="geometry" />
        </mxCell>
        <mxCell id="PMqfsjEAWjkF-4yW7PhV-26" value="" style="edgeStyle=orthogonalEdgeStyle;rounded=0;orthogonalLoop=1;jettySize=auto;html=1;" edge="1" parent="WIyWlLk6GJQsqaUBKTNV-1" source="PMqfsjEAWjkF-4yW7PhV-23" target="PMqfsjEAWjkF-4yW7PhV-25">
          <mxGeometry relative="1" as="geometry" />
        </mxCell>
        <mxCell id="PMqfsjEAWjkF-4yW7PhV-23" value="Solicitar escolaridade" style="rounded=1;whiteSpace=wrap;html=1;" vertex="1" parent="WIyWlLk6GJQsqaUBKTNV-1">
          <mxGeometry x="700" y="849" width="120" height="60" as="geometry" />
        </mxCell>
        <mxCell id="PMqfsjEAWjkF-4yW7PhV-28" value="" style="edgeStyle=orthogonalEdgeStyle;rounded=0;orthogonalLoop=1;jettySize=auto;html=1;" edge="1" parent="WIyWlLk6GJQsqaUBKTNV-1" source="PMqfsjEAWjkF-4yW7PhV-25" target="PMqfsjEAWjkF-4yW7PhV-27">
          <mxGeometry relative="1" as="geometry" />
        </mxCell>
        <mxCell id="PMqfsjEAWjkF-4yW7PhV-25" value="Solicitar senha" style="rounded=1;whiteSpace=wrap;html=1;" vertex="1" parent="WIyWlLk6GJQsqaUBKTNV-1">
          <mxGeometry x="700" y="989" width="120" height="60" as="geometry" />
        </mxCell>
        <mxCell id="PMqfsjEAWjkF-4yW7PhV-30" value="" style="edgeStyle=orthogonalEdgeStyle;rounded=0;orthogonalLoop=1;jettySize=auto;html=1;" edge="1" parent="WIyWlLk6GJQsqaUBKTNV-1" source="PMqfsjEAWjkF-4yW7PhV-27" target="PMqfsjEAWjkF-4yW7PhV-29">
          <mxGeometry relative="1" as="geometry" />
        </mxCell>
        <mxCell id="PMqfsjEAWjkF-4yW7PhV-27" value="Confirmar senha" style="rounded=1;whiteSpace=wrap;html=1;" vertex="1" parent="WIyWlLk6GJQsqaUBKTNV-1">
          <mxGeometry x="450" y="989" width="120" height="60" as="geometry" />
        </mxCell>
        <mxCell id="PMqfsjEAWjkF-4yW7PhV-32" value="" style="edgeStyle=orthogonalEdgeStyle;rounded=0;orthogonalLoop=1;jettySize=auto;html=1;" edge="1" parent="WIyWlLk6GJQsqaUBKTNV-1" source="PMqfsjEAWjkF-4yW7PhV-29" target="PMqfsjEAWjkF-4yW7PhV-31">
          <mxGeometry relative="1" as="geometry" />
        </mxCell>
        <mxCell id="PMqfsjEAWjkF-4yW7PhV-33" style="edgeStyle=orthogonalEdgeStyle;rounded=0;orthogonalLoop=1;jettySize=auto;html=1;entryX=0;entryY=0.5;entryDx=0;entryDy=0;" edge="1" parent="WIyWlLk6GJQsqaUBKTNV-1" source="PMqfsjEAWjkF-4yW7PhV-29" target="PMqfsjEAWjkF-4yW7PhV-27">
          <mxGeometry relative="1" as="geometry">
            <Array as="points">
              <mxPoint x="430" y="889" />
              <mxPoint x="430" y="1019" />
            </Array>
          </mxGeometry>
        </mxCell>
        <mxCell id="PMqfsjEAWjkF-4yW7PhV-29" value="Senhas compativeis?" style="rhombus;whiteSpace=wrap;html=1;rounded=1;" vertex="1" parent="WIyWlLk6GJQsqaUBKTNV-1">
          <mxGeometry x="460" y="839" width="100" height="100" as="geometry" />
        </mxCell>
        <mxCell id="PMqfsjEAWjkF-4yW7PhV-35" style="edgeStyle=orthogonalEdgeStyle;rounded=0;orthogonalLoop=1;jettySize=auto;html=1;" edge="1" parent="WIyWlLk6GJQsqaUBKTNV-1" source="PMqfsjEAWjkF-4yW7PhV-31" target="PMqfsjEAWjkF-4yW7PhV-17">
          <mxGeometry relative="1" as="geometry" />
        </mxCell>
        <mxCell id="PMqfsjEAWjkF-4yW7PhV-39" value="" style="edgeStyle=orthogonalEdgeStyle;rounded=0;orthogonalLoop=1;jettySize=auto;html=1;" edge="1" parent="WIyWlLk6GJQsqaUBKTNV-1" source="PMqfsjEAWjkF-4yW7PhV-31" target="PMqfsjEAWjkF-4yW7PhV-38">
          <mxGeometry relative="1" as="geometry" />
        </mxCell>
        <mxCell id="PMqfsjEAWjkF-4yW7PhV-31" value="Formulário preenchido?" style="rhombus;whiteSpace=wrap;html=1;rounded=1;" vertex="1" parent="WIyWlLk6GJQsqaUBKTNV-1">
          <mxGeometry x="455" y="709" width="110" height="90" as="geometry" />
        </mxCell>
        <mxCell id="PMqfsjEAWjkF-4yW7PhV-34" value="Não" style="text;html=1;align=center;verticalAlign=middle;resizable=0;points=[];autosize=1;strokeColor=none;fillColor=none;" vertex="1" parent="WIyWlLk6GJQsqaUBKTNV-1">
          <mxGeometry x="390" y="939" width="50" height="30" as="geometry" />
        </mxCell>
        <mxCell id="PMqfsjEAWjkF-4yW7PhV-36" value="Sim" style="text;html=1;align=center;verticalAlign=middle;resizable=0;points=[];autosize=1;strokeColor=none;fillColor=none;" vertex="1" parent="WIyWlLk6GJQsqaUBKTNV-1">
          <mxGeometry x="501" y="807" width="40" height="30" as="geometry" />
        </mxCell>
        <mxCell id="PMqfsjEAWjkF-4yW7PhV-37" value="Não" style="text;html=1;align=center;verticalAlign=middle;resizable=0;points=[];autosize=1;strokeColor=none;fillColor=none;" vertex="1" parent="WIyWlLk6GJQsqaUBKTNV-1">
          <mxGeometry x="506" y="657" width="50" height="30" as="geometry" />
        </mxCell>
        <mxCell id="PMqfsjEAWjkF-4yW7PhV-41" value="" style="edgeStyle=orthogonalEdgeStyle;rounded=0;orthogonalLoop=1;jettySize=auto;html=1;" edge="1" parent="WIyWlLk6GJQsqaUBKTNV-1" source="PMqfsjEAWjkF-4yW7PhV-38" target="PMqfsjEAWjkF-4yW7PhV-40">
          <mxGeometry relative="1" as="geometry" />
        </mxCell>
        <mxCell id="PMqfsjEAWjkF-4yW7PhV-38" value="Validar dados" style="whiteSpace=wrap;html=1;rounded=1;" vertex="1" parent="WIyWlLk6GJQsqaUBKTNV-1">
          <mxGeometry x="260" y="724" width="120" height="60" as="geometry" />
        </mxCell>
        <mxCell id="PMqfsjEAWjkF-4yW7PhV-42" value="" style="edgeStyle=orthogonalEdgeStyle;rounded=0;orthogonalLoop=1;jettySize=auto;html=1;" edge="1" parent="WIyWlLk6GJQsqaUBKTNV-1" source="PMqfsjEAWjkF-4yW7PhV-40" target="PMqfsjEAWjkF-4yW7PhV-17">
          <mxGeometry relative="1" as="geometry" />
        </mxCell>
        <mxCell id="PMqfsjEAWjkF-4yW7PhV-40" value="Dados válidos?" style="rhombus;whiteSpace=wrap;html=1;rounded=1;" vertex="1" parent="WIyWlLk6GJQsqaUBKTNV-1">
          <mxGeometry x="280" y="559" width="80" height="80" as="geometry" />
        </mxCell>
        <mxCell id="PMqfsjEAWjkF-4yW7PhV-43" value="Não" style="text;html=1;align=center;verticalAlign=middle;resizable=0;points=[];autosize=1;strokeColor=none;fillColor=none;" vertex="1" parent="WIyWlLk6GJQsqaUBKTNV-1">
          <mxGeometry x="380" y="574" width="50" height="30" as="geometry" />
        </mxCell>
        <mxCell id="PMqfsjEAWjkF-4yW7PhV-44" value="Sim" style="text;html=1;align=center;verticalAlign=middle;resizable=0;points=[];autosize=1;strokeColor=none;fillColor=none;" vertex="1" parent="WIyWlLk6GJQsqaUBKTNV-1">
          <mxGeometry x="401" y="727" width="40" height="30" as="geometry" />
        </mxCell>
        <mxCell id="PMqfsjEAWjkF-4yW7PhV-53" value="" style="edgeStyle=orthogonalEdgeStyle;rounded=0;orthogonalLoop=1;jettySize=auto;html=1;" edge="1" parent="WIyWlLk6GJQsqaUBKTNV-1" source="PMqfsjEAWjkF-4yW7PhV-47" target="PMqfsjEAWjkF-4yW7PhV-52">
          <mxGeometry relative="1" as="geometry" />
        </mxCell>
        <mxCell id="PMqfsjEAWjkF-4yW7PhV-47" value="Salvar dados" style="shape=cylinder3;whiteSpace=wrap;html=1;boundedLbl=1;backgroundOutline=1;size=15;" vertex="1" parent="WIyWlLk6GJQsqaUBKTNV-1">
          <mxGeometry x="130" y="559" width="60" height="80" as="geometry" />
        </mxCell>
        <mxCell id="PMqfsjEAWjkF-4yW7PhV-48" style="edgeStyle=orthogonalEdgeStyle;rounded=0;orthogonalLoop=1;jettySize=auto;html=1;entryX=1;entryY=0.5;entryDx=0;entryDy=0;entryPerimeter=0;" edge="1" parent="WIyWlLk6GJQsqaUBKTNV-1" source="PMqfsjEAWjkF-4yW7PhV-40" target="PMqfsjEAWjkF-4yW7PhV-47">
          <mxGeometry relative="1" as="geometry" />
        </mxCell>
        <mxCell id="PMqfsjEAWjkF-4yW7PhV-51" value="Sim" style="text;html=1;align=center;verticalAlign=middle;resizable=0;points=[];autosize=1;strokeColor=none;fillColor=none;" vertex="1" parent="WIyWlLk6GJQsqaUBKTNV-1">
          <mxGeometry x="220" y="569" width="40" height="30" as="geometry" />
        </mxCell>
        <mxCell id="PMqfsjEAWjkF-4yW7PhV-56" style="edgeStyle=orthogonalEdgeStyle;rounded=0;orthogonalLoop=1;jettySize=auto;html=1;entryX=1;entryY=0.5;entryDx=0;entryDy=0;" edge="1" parent="WIyWlLk6GJQsqaUBKTNV-1" source="PMqfsjEAWjkF-4yW7PhV-52" target="PMqfsjEAWjkF-4yW7PhV-9">
          <mxGeometry relative="1" as="geometry" />
        </mxCell>
        <mxCell id="PMqfsjEAWjkF-4yW7PhV-52" value="Realizar login" style="rounded=1;whiteSpace=wrap;html=1;" vertex="1" parent="WIyWlLk6GJQsqaUBKTNV-1">
          <mxGeometry x="100" y="409" width="120" height="60" as="geometry" />
        </mxCell>
        <mxCell id="PMqfsjEAWjkF-4yW7PhV-55" value="Sim" style="text;html=1;align=center;verticalAlign=middle;resizable=0;points=[];autosize=1;strokeColor=none;fillColor=none;" vertex="1" parent="WIyWlLk6GJQsqaUBKTNV-1">
          <mxGeometry x="395" y="159" width="40" height="30" as="geometry" />
        </mxCell>
        <mxCell id="PMqfsjEAWjkF-4yW7PhV-58" value="Caracteriza-se dados inválidos os já existentes no banco de dados e/ou campos preenchidos com valores com tipos incorrespondentes" style="shape=callout;whiteSpace=wrap;html=1;perimeter=calloutPerimeter;" vertex="1" parent="WIyWlLk6GJQsqaUBKTNV-1">
          <mxGeometry x="250" y="449" width="170" height="120" as="geometry" />
        </mxCell>
      </root>
    </mxGraphModel>
  </diagram>
</mxfile>
